<svg xmlns="http://www.w3.org/2000/svg" viewBox="0 0 889.35 742.87"><defs><style>.cls-1{fill:#2f2e41;}.cls-2{fill:#6c63ff;}.cls-3{fill:#f2f2f2;}.cls-4{fill:#3f3d56;}.cls-5{fill:#a0616a;}.cls-6{opacity:0.1;isolation:isolate;}.cls-7{fill:#fafafa;}.cls-8{fill:#1a2e35;}.cls-9{fill:#ff4f5b;}.cls-10,.cls-15{font-size:17.09px;}.cls-10{font-family:Montserrat-SemiBold, Montserrat;font-weight:600;}.cls-11{letter-spacing:-0.02em;}.cls-12{letter-spacing:-0.01em;}.cls-13{letter-spacing:0em;}.cls-14{letter-spacing:0em;}.cls-15{font-family:Montserrat-Regular, Montserrat;}.cls-16{letter-spacing:-0.03em;}.cls-17{letter-spacing:0em;}.cls-18{letter-spacing:-0.01em;}.cls-19{letter-spacing:-0.01em;}.cls-20{letter-spacing:-0.02em;}.cls-21{letter-spacing:-0.01em;}.cls-22{letter-spacing:0em;}</style></defs><title>empty_cart</title><g id="ffc6eb9a-0ec0-429c-85a8-ff38b44048bf"><path class="cls-1" d="M113.29,714.18c11.35,21.05,35.44,30.09,35.44,30.09s5.68-25.1-5.67-46.15S107.62,668,107.62,668,101.93,693.13,113.29,714.18Z" transform="translate(-4.23 -3.49)"/><path class="cls-2" d="M121.09,707.26c20.49,12.32,28.38,36.81,28.38,36.81s-25.33,4.5-45.82-7.83-28.39-36.81-28.39-36.81S100.59,694.93,121.09,707.26Z" transform="translate(-4.23 -3.49)"/><rect class="cls-3" x="448.46" y="92.54" width="127.86" height="1.83"/><rect class="cls-3" x="539.79" y="93.91" width="1.83" height="16.9"/><rect class="cls-3" x="484.07" y="93.91" width="1.83" height="16.9"/><rect class="cls-3" x="513.3" y="180.22" width="127.86" height="1.83"/><rect class="cls-3" x="548.01" y="163.78" width="1.83" height="16.9"/><rect class="cls-3" x="603.72" y="163.78" width="1.83" height="16.9"/><rect class="cls-3" x="683.17" y="221.32" width="127.86" height="1.83"/><rect class="cls-3" x="717.88" y="204.88" width="1.83" height="16.9"/><rect class="cls-3" x="773.59" y="204.88" width="1.83" height="16.9"/><rect class="cls-3" x="670.39" y="645.09" width="127.86" height="1.83"/><rect class="cls-3" x="705.09" y="628.65" width="1.83" height="16.9"/><rect class="cls-3" x="760.8" y="628.65" width="1.83" height="16.9"/><rect class="cls-3" x="452.11" y="351.92" width="127.86" height="1.83"/><rect class="cls-3" x="486.81" y="335.48" width="1.83" height="16.9"/><rect class="cls-3" x="542.53" y="335.48" width="1.83" height="16.9"/><rect class="cls-3" x="492.29" y="572.03" width="127.86" height="1.83"/><rect class="cls-3" x="527" y="555.59" width="1.83" height="16.9"/><rect class="cls-3" x="582.71" y="555.59" width="1.83" height="16.9"/><rect class="cls-3" x="696.87" y="505.36" width="127.86" height="1.83"/><rect class="cls-3" x="731.58" y="488.92" width="1.83" height="16.9"/><rect class="cls-3" x="787.29" y="488.92" width="1.83" height="16.9"/><polygon class="cls-1" points="401.7 701.06 185.45 701.06 185.45 699.5 400.15 699.5 400.15 624.04 203.63 624.04 194.08 604.15 195.48 603.48 204.61 622.49 401.7 622.49 401.7 701.06"/><circle class="cls-4" cx="214.23" cy="722.84" r="16.34"/><circle class="cls-4" cx="375.26" cy="722.84" r="16.34"/><circle class="cls-4" cx="565.06" cy="375.89" r="10.11"/><path class="cls-1" d="M429.06,601.86H186l-52.6-171.92H483.23l-.32,1ZM187.14,600.3H427.92l53.19-168.8H135.49Z" transform="translate(-4.23 -3.49)"/><polygon class="cls-3" points="405.86 589.43 192.36 589.43 146.16 436.96 453.44 436.96 453.16 437.86 405.86 589.43"/><polygon class="cls-1" points="483.36 411.1 481.86 410.7 492.12 372 551.84 372 551.84 373.56 493.32 373.56 483.36 411.1"/><rect class="cls-1" x="146.16" y="478.58" width="315.36" height="1.56"/><rect class="cls-1" x="163.7" y="535.89" width="279.76" height="1.56"/><rect class="cls-1" x="303.3" y="427.23" width="1.56" height="170.36"/><rect class="cls-1" x="288.57" y="515.12" width="170.72" height="1.56" transform="translate(-169.55 851.8) rotate(-86.25)"/><rect class="cls-1" x="241.9" y="430.54" width="1.56" height="170.72" transform="translate(-37.27 13.39) rotate(-3.73)"/><rect class="cls-1" x="71.03" y="740.16" width="818.32" height="1.83"/><path class="cls-5" d="M619.05,119.75s13.35,38,5.14,43.84,27.72,53.59,27.72,53.59l43.14-11.69-23.62-40s-3.08-39.95-3.08-45.79S619.05,119.75,619.05,119.75Z" transform="translate(-4.23 -3.49)"/><path class="cls-6" d="M619.05,119.75s13.35,38,5.14,43.84,27.72,53.59,27.72,53.59l43.14-11.69-23.62-40s-3.08-39.95-3.08-45.79S619.05,119.75,619.05,119.75Z" transform="translate(-4.23 -3.49)"/><path class="cls-1" d="M596.64,390.61s-3.9,48.72,0,74.05,9.74,95.49,9.74,95.49,0,132.51,21.44,134.46,37,3.89,39-3.9-9.74-11.69-3.89-15.59,7.79-17.54,0-33.13,0-173.43,0-173.43l37,99.38s3.9,81.85,7.8,93.54-3.9,33.13,9.74,35.07,29.23-9.74,37-13.64-11.69-3.89-7.79-5.84,15.59-7.8,11.69-9.75-7.79-95.48-7.79-95.48S739.87,372.1,726.23,364.31s-22.41,5.63-22.41,5.63Z" transform="translate(-4.23 -3.49)"/><path class="cls-1" d="M631.72,686.81V702.4s-17.54,42.38,0,42.38,31.18,4.39,31.18-1.46V690.71Z" transform="translate(-4.23 -3.49)"/><path class="cls-1" d="M746.69,686.78v15.59s17.54,42.38,0,42.38-31.18,4.39-31.18-1.46V690.68Z" transform="translate(-4.23 -3.49)"/><circle class="cls-5" cx="642.11" cy="109.44" r="35.08"/><path class="cls-2" d="M635.61,178.21s9.75,29.23,25.34,23.38l15.59-5.84,27.28,187.07S682.38,414,651.2,394.51,635.61,178.21,635.61,178.21Z" transform="translate(-4.23 -3.49)"/><path class="cls-4" d="M662.9,172.36l8.77-18.51S723.3,178.21,731.1,186s7.79,19.49,7.79,19.49l-13.64,48.72s3.9,107.17,3.9,111.07,13.64,25.33,3.9,17.54-11.69-15.59-19.49-3.9-25.33,25.33-25.33,25.33Z" transform="translate(-4.23 -3.49)"/><path class="cls-5" d="M731.1,312.67l-5.85,54.56S690.18,398.41,698,400.36s11.69-5.85,11.69-5.85,13.64,13.64,21.44,5.85,27.28-81.85,27.28-81.85Z" transform="translate(-4.23 -3.49)"/><path class="cls-1" d="M647.08,63.35c-7.78-.27-16.1-.41-22.65,3.78a32.92,32.92,0,0,0-7.83,7.66C610.21,82.87,604.69,93,607.07,103l2.75-1.08a17.94,17.94,0,0,1-1.74,7.73c.39-1.13,1.69.7,1.34,1.84l-3,10c5-1.82,11.19,1.88,12,7.14.35-11.57,1.55-24.83,10.93-31.6,4.73-3.41,10.71-4.45,16.47-5.38,5.32-.85,10.89-1.67,16,.08s9.42,7,8.27,12.21c2.34-.81,5,.83,6.13,3s1.22,4.79,1.25,7.27c2.51,1.77,5.35-1.74,6.37-4.63,2.4-6.78,4.52-14,3.23-21.07s-7.05-13.84-14.24-13.86a5,5,0,0,0,1.3-3.52l-5.93-.5A6.55,6.55,0,0,0,672,68.58C669.64,71.2,650.93,63.49,647.08,63.35Z" transform="translate(-4.23 -3.49)"/><path class="cls-4" d="M645.36,166.52s-15.87-15.55-21.57-14.6-13.51,14.6-13.51,14.6-46.77,15.58-44.82,31.17,23.39,91.59,23.39,91.59,17.53,91.59,1.95,101.33,74,35.08,76,23.39,5.85-128.62,0-146.15S645.36,166.52,645.36,166.52Z" transform="translate(-4.23 -3.49)"/><path class="cls-4" d="M713.56,197.69h24.1s16.82,74.05,18.77,81.85,5.85,44.82,3.9,44.82-40.92-7.8-40.92-1.95Z" transform="translate(-4.23 -3.49)"/><path class="cls-3" d="M712.75,381.06H620.5c-9-41.4-9.75-81.41,0-119.64h92.25C697.86,299,696.93,338.69,712.75,381.06Z" transform="translate(-4.23 -3.49)"/><path class="cls-5" d="M583,330.2l27.28,11.7s52.62,7.79,52.62-13.64-52.62-9.75-52.62-9.75l-17.54-5.61Z" transform="translate(-4.23 -3.49)"/><path class="cls-4" d="M588.85,186l-23.39,5.85L547.92,295.13s-5.84,27.28,3.9,29.23,37,17.54,37,17.54,3.89-29.23,11.69-29.23l-19.49-15.59,11.69-68.21Z" transform="translate(-4.23 -3.49)"/><rect class="cls-3" x="126.06" y="382.06" width="127.86" height="1.83"/><rect class="cls-3" x="160.77" y="365.62" width="1.83" height="16.9"/><rect class="cls-3" x="216.48" y="365.62" width="1.83" height="16.9"/><rect class="cls-3" x="170.81" y="111.72" width="127.86" height="1.83"/><rect class="cls-3" x="262.14" y="113.09" width="1.83" height="16.9"/><rect class="cls-3" x="206.43" y="113.09" width="1.83" height="16.9"/><rect class="cls-3" x="299.59" y="291.64" width="127.86" height="1.83"/><rect class="cls-3" x="390.92" y="293.01" width="1.83" height="16.9"/><rect class="cls-3" x="335.21" y="293.01" width="1.83" height="16.9"/><rect class="cls-3" x="82.22" y="290.73" width="127.86" height="1.83"/><rect class="cls-3" x="173.55" y="292.1" width="1.83" height="16.9"/><rect class="cls-3" x="117.84" y="292.1" width="1.83" height="16.9"/><rect class="cls-3" x="235.66" y="199.4" width="127.86" height="1.83"/><rect class="cls-3" x="270.36" y="182.96" width="1.83" height="16.9"/><rect class="cls-3" x="326.07" y="182.96" width="1.83" height="16.9"/></g><g id="Layer_2" data-name="Layer 2"><rect class="cls-7" x="0.48" y="0.48" width="448.71" height="351.26"/><path class="cls-8" d="M453.41,355.23c0-3.3-.16-139.36-.39-351.27l.39.4L4.74,4.44h0L5.18,4c0,126.67,0,246.45,0,351.27l-.43-.43,448.7.43-448.7.43H4.28v-.43c0-104.82,0-224.6,0-351.27V3.49h.51l448.67.08h.4V4C453.57,215.87,453.42,351.93,453.41,355.23Z" transform="translate(-4.23 -3.49)"/><path class="cls-9" d="M232.78,138.56a35.66,35.66,0,1,1,35.66-35.66A35.7,35.7,0,0,1,232.78,138.56Zm0-67.64a32,32,0,1,0,32,32A32,32,0,0,0,232.78,70.92Z" transform="translate(-4.23 -3.49)"/><path class="cls-9" d="M221.33,112.4a2.3,2.3,0,0,1,.92-2.84l18.06-17.14a1.84,1.84,0,0,1,2.54,2.66l-18.13,17.21C223.49,113.42,221.84,113.17,221.33,112.4Z" transform="translate(-4.23 -3.49)"/><path class="cls-9" d="M243.21,112.4a2.3,2.3,0,0,0-.92-2.84L224.23,92.42a1.84,1.84,0,1,0-2.54,2.66l18.14,17.21C241.06,113.42,242.7,113.17,243.21,112.4Z" transform="translate(-4.23 -3.49)"/><path class="cls-8" d="M453.41,38.28c0,.26-100.2.48-223.78.48s-223.8-.22-223.8-.48S106,37.8,229.63,37.8,453.41,38,453.41,38.28Z" transform="translate(-4.23 -3.49)"/><circle class="cls-8" cx="16.36" cy="17.15" r="2.6"/><circle class="cls-8" cx="26.08" cy="17.15" r="2.6"/><path class="cls-8" d="M42.47,20.64A2.61,2.61,0,1,1,39.87,18,2.59,2.59,0,0,1,42.47,20.64Z" transform="translate(-4.23 -3.49)"/><text class="cls-10" transform="translate(142.71 189.48)"><tspan class="cls-11">K</tspan><tspan x="12.07" y="0">e</tspan><tspan class="cls-12" x="22.7" y="0">r</tspan><tspan x="29.74" y="0">anja</tspan><tspan class="cls-13" x="67.25" y="0">n</tspan><tspan x="79.04" y="0">g </tspan><tspan class="cls-11" x="95.62" y="0">K</tspan><tspan x="107.69" y="0">oso</tspan><tspan class="cls-14" x="138.54" y="0">n</tspan><tspan x="150.34" y="0">g</tspan></text><text class="cls-15" transform="translate(85.46 222.54)"><tspan class="cls-16">T</tspan><tspan x="9.32" y="0">am</tspan><tspan class="cls-17" x="37.54" y="0">b</tspan><tspan x="49.08" y="0">ah</tspan><tspan class="cls-18" x="70.73" y="0">k</tspan><tspan x="80.83" y="0">an p</tspan><tspan class="cls-19" x="118.56" y="0">r</tspan><tspan x="125.19" y="0">oduk </tspan><tspan class="cls-20" x="173.76" y="0">k</tspan><tspan x="183.67" y="0">e </tspan><tspan class="cls-20" x="198.47" y="0">k</tspan><tspan x="208.39" y="0">e</tspan><tspan class="cls-21" x="218.71" y="0">r</tspan><tspan x="225.41" y="0">anja</tspan><tspan class="cls-22" x="261.84" y="0">n</tspan><tspan x="273.44" y="0">g</tspan></text></g></svg>